HIERARCHY
ROOT Hips
{
	OFFSET -3.958830 18.904000 13.208200
	CHANNELS 6 Xposition Yposition Zposition Zrotation Yrotation Xrotation 
	JOINT LHipJoint
	{
		OFFSET 0.000000 0.000000 0.000000
		CHANNELS 3 Zrotation Yrotation Xrotation
		JOINT LeftUpLeg
		{
			OFFSET 1.800000 -1.400000 0.085000
			CHANNELS 3 Zrotation Yrotation Xrotation
			JOINT LeftLeg
			{
				OFFSET 2.215000 -6.000000 0.000000
				CHANNELS 3 Zrotation Yrotation Xrotation
				JOINT LeftFoot
				{
					OFFSET 2.500000 -6.900000 0.000000
					CHANNELS 3 Zrotation Yrotation Xrotation
					JOINT LeftToeBase
					{
						OFFSET 0.200000 -0.500000 1.950000
						CHANNELS 3 Zrotation Yrotation Xrotation
						End Site
						{
							OFFSET 0.000000 0.000000 0.000000
						}
					}
				}
			}
		}
	}
	JOINT RHipJoint
	{
		OFFSET 0.000000 0.000000 0.000000
		CHANNELS 3 Zrotation Yrotation Xrotation
		JOINT RightUpLeg
		{
			OFFSET -1.800000 -1.400000 0.085000
			CHANNELS 3 Zrotation Yrotation Xrotation
			JOINT RightLeg
			{
				OFFSET -2.215000 -6.000000 0.000000
				CHANNELS 3 Zrotation Yrotation Xrotation
				JOINT RightFoot
				{
					OFFSET -2.500000 -6.900000 0.000000
					CHANNELS 3 Zrotation Yrotation Xrotation
					JOINT RightToeBase
					{
						OFFSET -0.200000 -0.500000 1.950000
						CHANNELS 3 Zrotation Yrotation Xrotation
						End Site
						{
							OFFSET 0.000000 0.000000 0.000000
						}
					}
				}
			}
		}
	}
	JOINT LowerBack
	{
		OFFSET 0.000000 0.000000 0.000000
		CHANNELS 3 Zrotation Yrotation Xrotation
		JOINT Spine
		{
			OFFSET -0.087000 1.940000 -0.288900
			CHANNELS 3 Zrotation Yrotation Xrotation
			JOINT Spine1
			{
				OFFSET 0.000000 1.950000 0.060000
				CHANNELS 3 Zrotation Yrotation Xrotation
				JOINT Neck
				{
					OFFSET 0.000000 0.000000 0.000000
					CHANNELS 3 Zrotation Yrotation Xrotation
					JOINT Neck1
					{
						OFFSET 0.000000 1.600000 0.340000
						CHANNELS 3 Zrotation Yrotation Xrotation
						JOINT Head
						{
							OFFSET 0.000000 1.667000 -0.240000
							CHANNELS 3 Zrotation Yrotation Xrotation
							End Site
							{
								OFFSET 0.000000 0.000000 0.000000
							}
						}
					}
				}
				JOINT LeftShoulder
				{
					OFFSET 0.000000 0.000000 0.000000
					CHANNELS 3 Zrotation Yrotation Xrotation
					JOINT LeftArm
					{
						OFFSET 2.700000 1.550000 -0.730000
						CHANNELS 3 Zrotation Yrotation Xrotation
						JOINT LeftForeArm
						{
							OFFSET 5.450000 0.000000 0.000000
							CHANNELS 3 Zrotation Yrotation Xrotation
							JOINT LeftHand
							{
								OFFSET 3.450000 0.000000 0.000000
								CHANNELS 3 Zrotation Yrotation Xrotation
								JOINT LeftHandIndex1
								{
									OFFSET 0.750000 0.000000 0.000000
									CHANNELS 3 Zrotation Yrotation Xrotation
									End Site
									{
										OFFSET 0.000000 0.000000 0.000000
									}
								}
							}
						}
					}
				}
				JOINT RightShoulder
				{
					OFFSET 0.000000 0.000000 0.000000
					CHANNELS 3 Zrotation Yrotation Xrotation
					JOINT RightArm
					{
						OFFSET -2.700000 1.550000 -0.730000
						CHANNELS 3 Zrotation Yrotation Xrotation
						JOINT RightForeArm
						{
							OFFSET -5.450000 0.000000 0.000000
							CHANNELS 3 Zrotation Yrotation Xrotation
							JOINT RightHand
							{
								OFFSET -3.450000 0.000000 0.000000
								CHANNELS 3 Zrotation Yrotation Xrotation
								JOINT RightHandIndex1
								{
									OFFSET -0.750000 0.000000 0.000000
									CHANNELS 3 Zrotation Yrotation Xrotation
									End Site
									{
										OFFSET 0.000000 0.000000 0.000000
									}
								}
							}
						}
					}
				}
			}
		}
	}
}
MOTION
Frames: 14
Frame Time: 0.016667
-0.433790 15.566570 -0.718010 -2.645532 -19.090724 -15.243129 -15.240546 12.718700 3.750498 39.196533 1.186402 -16.726322 0.712039 17.629159 56.683410 1.248370 11.292575 0.522179 0.756800 0.521480 0.689190 18.476365 -10.059988 2.588275 -30.761467 1.425009 -32.048562 -1.219049 -9.545785 45.164001 -0.850695 -6.737269 1.858897 0.055840 -0.286210 0.196010 -3.794057 -1.860991 -8.750484 18.124491 -5.806460 26.943194 0.406624 -3.299730 9.136583 0.191744 -2.835164 -15.795436 -6.217136 6.128379 39.646975 3.248410 6.191240 -19.279190 -2.804291 -18.474169 11.236476 -26.873242 6.758304 -8.756886 38.504892 -14.382055 -5.314300 -3.181647 3.396991 0.685040 -0.313880 0.383450 0.210410 2.475461 21.726261 8.085421 40.775577 18.506430 -13.467363 1.651494 65.443454 -4.302635 2.074504 -1.637732 0.113940 -0.117450 -0.459560 -0.153940 
-0.479480 15.596340 -0.755060 -2.951499 -22.000642 -15.021410 -15.216051 12.806882 3.544555 38.144525 1.397870 -15.707933 1.396846 16.829149 55.753104 1.124918 11.036191 0.561657 0.881960 0.623250 0.833010 18.446742 -10.134371 2.828346 -29.859053 2.296127 -33.028221 0.378652 -9.625390 43.820391 -0.849123 -6.552837 1.877068 0.134110 -0.364240 0.241730 -3.766812 -1.544007 -8.733207 20.593955 -5.491311 27.755532 2.512847 -3.443359 10.278179 0.933568 1.772100 -14.944373 3.504329 1.706440 41.010092 2.092460 5.174200 -19.836090 -5.231424 -19.217067 11.528024 -29.126940 7.198383 -7.467091 33.348854 -10.364740 -3.114599 -3.197689 3.417259 0.709710 -0.317520 0.433270 0.209550 3.240607 20.002015 6.297497 39.259746 22.519591 -12.866379 -3.347619 67.567636 -7.459104 2.022471 -1.631490 0.139840 -0.159790 -0.526120 -0.200220 
-0.535090 15.648590 -0.795200 -3.472733 -23.988779 -15.107065 -15.257605 13.035795 3.421296 37.512046 1.531383 -15.073036 2.176520 15.845336 54.440382 0.977474 10.720342 0.630670 0.962970 0.731600 0.927440 18.356406 -10.155158 2.872075 -28.450195 3.036102 -32.856979 1.193284 -9.342562 42.614161 -0.838401 -6.310794 1.945996 0.223860 -0.405780 0.251560 -3.523913 -1.692949 -8.677709 22.221429 -5.036319 29.108166 5.547635 -3.522236 11.033521 1.993568 5.022888 -14.663763 10.663718 -2.093933 41.061215 -0.757340 4.415580 -20.930580 -7.969871 -19.733440 11.506229 -31.382019 6.338221 -6.459068 29.924113 -8.291600 -2.123536 -3.227521 3.346052 0.713270 -0.301770 0.480910 0.213760 4.199573 19.546826 5.229455 38.649865 25.395507 -13.526166 -13.766698 68.244097 -14.076772 1.942100 -1.473636 0.141190 -0.125340 -0.567980 -0.224090 
-0.587820 15.690900 -0.826530 -3.540500 -24.363089 -15.553781 -15.257698 13.248781 3.252078 36.446482 1.381431 -14.842928 3.579110 14.368119 53.361074 0.882418 10.303997 0.728198 1.027350 0.833690 0.960610 18.301174 -10.266390 2.886481 -28.153779 3.115483 -32.041478 2.080600 -9.369110 41.488816 -0.830163 -6.207449 1.978590 0.280050 -0.432220 0.281350 -3.388717 -1.768522 -8.600506 23.391994 -4.385440 29.564661 7.647166 -3.447442 12.253617 2.563031 6.709346 -15.427412 14.965540 -4.604537 41.374385 -2.019420 3.587010 -19.948870 -9.113545 -21.523109 11.750250 -32.744164 4.601823 -6.485551 30.636190 -8.989845 -2.532999 -3.227713 3.383955 0.668620 -0.276990 0.511140 0.232240 4.437830 21.163069 5.739196 38.664471 26.131357 -15.385317 -24.807784 66.820215 -20.983368 1.872127 -1.331144 0.192510 -0.140180 -0.600180 -0.209990 
-0.652210 15.722280 -0.859360 -3.730373 -23.242348 -16.539643 -15.247534 13.322600 3.221049 36.459880 0.999763 -14.852878 4.285115 13.432613 52.689451 0.791815 10.074156 0.770369 1.072600 0.886660 1.024030 18.277887 -10.401889 2.776948 -28.202536 2.809696 -30.192791 2.962303 -9.770823 41.178103 -0.894850 -6.262342 1.932227 0.301020 -0.472840 0.317900 -3.347638 -1.755967 -8.544814 24.510112 -3.759194 30.071248 8.413050 -3.037740 13.380137 2.563928 8.145116 -16.381701 18.639006 -6.162770 41.844946 -2.575530 4.315310 -21.740360 -8.709170 -23.666330 11.894486 -32.121131 2.430144 -7.807433 35.319249 -13.163123 -4.810832 -3.167354 3.389106 0.719310 -0.291310 0.583370 0.230080 3.902120 22.360666 6.880685 41.883001 26.598993 -16.872932 -35.125619 62.501796 -26.321112 1.849414 -1.177199 0.207410 -0.136630 -0.617310 -0.231340 
-0.716640 15.735510 -0.894610 -3.901628 -21.500045 -17.053891 -15.181847 13.144753 3.290077 37.038866 0.618221 -15.285519 3.797873 13.378883 52.144742 0.817405 9.992936 0.758962 1.061330 0.897440 0.996770 18.344403 -10.526707 2.734549 -28.372882 2.472613 -29.554922 3.105329 -10.214262 41.903158 -0.944023 -6.473753 1.840170 0.266740 -0.481920 0.386560 -3.569467 -1.393811 -8.550234 26.079086 -3.613998 29.231316 7.333010 -2.704600 14.140909 1.962458 8.498879 -17.032992 19.141933 -6.338918 42.244233 -2.554560 4.951200 -21.446690 -8.743634 -26.239240 12.169639 -27.713302 0.971270 -9.413368 40.850665 -17.555537 -7.916095 -3.160005 3.473491 0.676900 -0.273260 0.606960 0.215980 4.779413 23.798551 7.858973 44.423364 26.518395 -16.982008 -38.082260 56.319099 -25.884467 1.915104 -1.291806 0.283980 -0.204780 -0.592600 -0.204340 
-0.784630 15.736460 -0.897810 -3.922762 -18.876205 -17.517674 -15.140811 12.839999 3.457375 38.083144 0.085649 -16.164995 2.210450 13.971588 51.514788 0.806523 10.087339 0.717624 1.016460 0.837020 0.955870 18.427046 -10.573320 2.647727 -29.129754 1.723713 -28.865415 3.168562 -11.073104 43.546627 -0.995866 -6.910006 1.682085 0.233430 -0.440080 0.420860 -3.794771 -1.055688 -8.612663 26.360611 -3.566130 27.916005 6.600943 -2.536759 14.501271 0.746609 8.146945 -17.143634 17.631117 -5.176089 41.957640 -2.283920 6.001920 -20.098210 -7.201140 -27.792084 11.766931 -22.591284 -0.476746 -11.286634 46.209202 -23.329020 -12.029278 -3.191691 3.491059 0.649940 -0.231530 0.568830 0.197900 5.431446 24.359327 8.347005 47.121726 26.082293 -15.834724 -35.611116 49.615343 -21.985918 1.975498 -1.488494 0.286590 -0.237490 -0.545710 -0.204170 
-0.853540 15.721150 -0.903020 -3.692769 -15.498292 -17.643803 -15.113724 12.318260 3.721237 39.287964 -0.456647 -17.798064 -0.762414 15.259520 50.571524 0.711247 10.380631 0.612074 0.949450 0.761350 0.893700 18.548072 -10.588845 2.514136 -30.077036 0.813912 -28.628958 2.400634 -11.804921 45.724470 -1.031256 -7.431516 1.509475 0.238810 -0.319320 0.461640 -4.073942 -0.493395 -8.654667 25.841688 -3.026607 26.345041 5.739944 -1.881009 15.169530 -0.421985 7.686747 -16.032668 15.422210 -3.335006 38.615571 -3.382060 7.501040 -19.609380 -4.854258 -28.223707 10.076442 -14.843798 -4.651943 -12.096542 49.458034 -29.155332 -15.922197 -3.334991 3.396805 0.605730 -0.113430 0.478000 0.168100 5.464724 23.985411 8.325486 50.342554 25.347802 -13.530727 -30.659337 42.660382 -17.063189 1.960537 -1.639059 0.237100 -0.205140 -0.442610 -0.219650 
-0.923310 15.702200 -0.901520 -2.500870 -11.223964 -18.294638 -15.116137 11.963856 3.954387 39.246734 -1.328306 -19.544043 -3.923678 16.472851 49.808814 0.427682 10.780303 0.462161 0.820100 0.535570 0.850220 18.626858 -10.555065 2.327221 -31.875303 -0.500629 -27.781895 1.041515 -12.387365 48.034258 -1.035594 -7.908188 1.342086 0.241630 -0.198440 0.403070 -4.202490 -0.418075 -8.697098 23.657924 -2.242668 25.452959 5.210132 -0.910923 15.618924 -2.272361 6.040664 -14.822461 10.678972 -1.757272 37.089777 -3.910850 7.637850 -20.838170 -2.512656 -28.921486 7.832988 -6.041711 -10.123619 -12.469244 51.266205 -33.637027 -18.797369 -3.489450 3.130253 0.712800 -0.042380 0.332190 0.065590 6.872225 24.507920 8.657380 52.419514 23.122308 -12.142748 -27.586076 37.069747 -13.584670 1.872509 -1.596403 0.019360 -0.065410 -0.255830 -0.345800 
-0.981020 15.685020 -0.905690 -1.444568 -6.457605 -19.765105 -15.153049 11.927991 4.220988 38.856092 -2.424378 -20.926773 -6.562782 17.333805 49.326541 0.263043 11.067841 0.403806 0.697180 0.338870 0.840700 18.610764 -10.536644 2.044049 -33.251163 -1.823796 -25.551379 -0.772347 -12.544327 50.203420 -1.098609 -8.184174 1.280760 0.204890 -0.121840 0.291290 -4.116299 -0.882106 -8.781737 21.008450 -1.677419 26.035440 4.642791 -0.030106 15.375831 -3.874518 3.916416 -14.694892 5.126243 -0.849375 39.526166 -4.390950 7.142080 -23.448700 -0.420635 -31.382137 5.486759 4.405981 -14.872185 -13.045685 50.164654 -37.061977 -19.036613 -3.596506 2.828828 0.870630 -0.063530 0.283390 0.013910 7.857815 27.246004 10.275562 53.327229 20.562938 -10.460821 -25.998963 29.849662 -10.351166 1.883492 -1.468962 -0.187900 0.140720 -0.145680 -0.433120 
-1.042710 15.653930 -0.905700 -0.549888 -1.166895 -20.245651 -15.179047 11.870218 4.386594 37.851869 -3.467633 -23.126714 -7.894129 17.608272 49.225426 0.149846 11.142443 0.423724 0.666560 0.278510 0.860360 18.626004 -10.467005 1.870588 -34.502154 -3.091731 -24.555255 -2.715876 -12.746655 53.039674 -1.186522 -8.579121 1.187613 0.233840 -0.078510 0.167630 -4.112670 -1.314584 -8.792361 17.996719 -1.328333 25.923726 3.919690 0.351592 14.140285 -5.750677 1.495427 -13.513372 -0.871162 0.850550 39.826917 -4.288940 7.034190 -24.355710 1.019394 -32.156519 1.831962 14.761608 -21.876128 -12.885204 46.700124 -38.578606 -16.634414 -3.653763 2.653264 0.938070 -0.086700 0.232540 0.020320 10.017143 28.577331 11.752977 54.254768 17.555023 -8.423359 -22.732321 24.889882 -7.565930 1.924883 -1.403293 -0.334930 0.282750 -0.143030 -0.476820 
-1.095360 15.624120 -0.928960 -0.293499 4.314731 -20.342196 -15.186089 11.899313 4.424042 36.343405 -4.512818 -26.329054 -6.379765 16.486013 50.129276 0.005001 11.008343 0.484269 0.655130 0.220220 0.862210 18.655721 -10.396511 1.746685 -35.667861 -4.265452 -23.256759 -3.359634 -13.490317 54.847988 -1.258296 -8.956051 1.052918 0.250570 -0.019230 0.144600 -4.168537 -1.811630 -8.703236 16.070076 -1.344315 25.439342 3.331988 0.172622 13.540106 -7.903333 -1.748170 -12.672578 -8.344611 3.036956 38.674969 -3.620220 6.372810 -23.677710 2.585948 -32.216890 -1.365539 23.355236 -30.560352 -14.096246 42.412876 -35.245744 -13.221135 -3.803532 2.658913 0.956020 -0.080160 0.177960 0.022870 12.445733 29.575984 13.358819 53.701540 14.270513 -7.000377 -19.055597 21.465406 -5.446157 1.955231 -1.379070 -0.406190 0.340130 -0.112270 -0.488530 
-1.131540 15.597280 -0.906650 0.098461 7.154492 -20.555779 -15.157598 11.956402 4.385862 35.579095 -4.536543 -27.540056 -5.055631 15.865520 50.408392 -0.126949 11.011785 0.532011 0.563760 0.075550 0.834660 18.704293 -10.445833 1.581762 -35.756625 -4.418147 -22.411499 -5.097721 -13.050217 56.533163 -1.238517 -9.158104 1.019170 0.239920 0.117810 0.094470 -4.301669 -2.026927 -8.526306 15.479913 -1.163266 24.539192 2.243603 0.286905 13.773969 -9.714109 -4.823135 -12.466595 -15.470292 5.446286 36.873675 -4.512190 6.439230 -21.210250 3.159597 -30.964426 -2.608926 30.623474 -37.334956 -16.975907 40.859587 -31.139385 -11.473309 -3.989119 2.540653 0.948420 -0.002920 0.062910 0.001810 15.099521 29.329424 14.206702 52.704191 11.835526 -6.165511 -15.759911 19.309385 -4.155272 1.946468 -1.292196 -0.536330 0.457360 -0.030530 -0.512770 
-1.155290 15.562620 -0.889650 0.583957 9.343782 -20.545697 -15.104807 11.840282 4.314668 34.892496 -4.374446 -28.412608 -4.638214 15.646783 50.206669 -0.056685 10.829577 0.567693 0.725930 0.303160 0.846360 18.807544 -10.470759 1.487789 -36.325582 -4.608530 -22.225384 -6.517760 -12.772740 58.360870 -1.324141 -9.498041 0.885229 0.354370 0.088520 0.172440 -4.536801 -1.968893 -8.348853 15.701053 -0.857174 23.231041 0.756297 0.377307 14.904337 -11.821230 -6.440438 -12.367961 -19.769196 7.786003 34.340985 -3.431680 7.399450 -18.105750 3.807737 -29.377967 -2.991625 38.528739 -43.855517 -22.450987 39.027731 -25.199643 -9.708174 -4.015680 2.830542 0.779080 0.036870 0.056090 0.077740 17.960242 27.461005 13.986337 50.867884 9.912793 -5.465352 -12.885273 18.188788 -3.573713 1.989596 -1.500091 -0.382400 0.312550 -0.135750 -0.437860 
